<?xml version="1.0" encoding="utf-8"?><svg xmlns="http://www.w3.org/2000/svg" xmlns:xlink="http://www.w3.org/1999/xlink"><symbol viewBox="0 0 32 21" id="actual-dots" xmlns="http://www.w3.org/2000/svg"><path d="M24.185.29c-3.988 0-7.137 3.323-7.137 7.42 0 4.098 3.275 7.42 7.264 7.42.04 0 .1-.006.14-.006-1.578 1.29-3.558 2.067-5.726 2.067-.997 0-1.8.831-1.8 1.855s.642 1.855 1.639 1.855c7.08 0 12.673-5.918 12.673-13.19v-.006c0-4.095-3.066-7.414-7.053-7.414zM7.27.29C3.28.29.125 3.614.125 7.71c0 4.098 3.273 7.42 7.262 7.42.04 0 .1-.006.139-.006-1.577 1.29-3.558 2.067-5.726 2.067-.998 0-1.801.831-1.801 1.855s.652 1.855 1.65 1.855c7.079 0 12.682-5.918 12.682-13.19v-.006c0-4.095-3.076-7.414-7.063-7.414z"/></symbol><symbol viewBox="0 0 37 23" id="camera" xmlns="http://www.w3.org/2000/svg"><path d="M35.386 2.474a1.182 1.182 0 00-1.264.179l-6.978 6.009V1.808c0-.674-.55-1.224-1.224-1.224H1.223C.55.584 0 1.134 0 1.808V21.36c0 .674.549 1.224 1.224 1.224H25.92c.674 0 1.225-.549 1.225-1.224v-6.853l6.978 6.008a1.182 1.182 0 001.953-.896V3.55c0-.462-.27-.882-.69-1.075z"/></symbol><symbol viewBox="0 0 12 12" id="clock" xmlns="http://www.w3.org/2000/svg"><path d="M6 0C2.692 0 0 2.692 0 6s2.692 6 6 6 6-2.692 6-6-2.692-6-6-6zm0 11.124A5.13 5.13 0 01.876 6 5.13 5.13 0 016 .876 5.13 5.13 0 0111.124 6 5.13 5.13 0 016 11.124z"/><path d="M8.044 6H6.146V3.372a.438.438 0 10-.876 0v3.066c0 .242.196.438.438.438h2.336a.438.438 0 100-.876z"/></symbol><symbol viewBox="0 0 26 26" id="comments" xmlns="http://www.w3.org/2000/svg"><path d="M21.824 1.752H4.15A3.355 3.355 0 00.8 5.103v10.815a3.355 3.355 0 003.339 3.352v4.907l7.053-4.907h10.632a3.355 3.355 0 003.35-3.352V5.103a3.355 3.355 0 00-3.35-3.351zm1.923 14.166c0 1.06-.863 1.923-1.923 1.923h-11.08l-5.177 3.603V17.84H4.151a1.925 1.925 0 01-1.923-1.923V5.103c0-1.06.863-1.923 1.923-1.923h17.673c1.06 0 1.923.863 1.923 1.923v10.815z"/><path d="M7.324 6.799H18.65v1.428H7.324V6.799zm0 3.046H18.65v1.429H7.324V9.845zm0 3.047H18.65v1.429H7.324v-1.429z"/></symbol><symbol viewBox="0 0 28 28" id="facebook" xmlns="http://www.w3.org/2000/svg"><path d="M20.999.006L17.368 0c-4.08 0-6.716 2.705-6.716 6.89v3.178h-3.65a.571.571 0 00-.571.571v4.604c0 .315.255.57.57.57h3.651V27.43a.57.57 0 00.571.571h4.763a.571.571 0 00.572-.57V15.812h4.268a.57.57 0 00.571-.57l.002-4.604a.572.572 0 00-.571-.571h-4.27V7.375c0-1.295.308-1.952 1.994-1.952h2.446a.57.57 0 00.57-.572V.577a.571.571 0 00-.57-.571z"/></symbol><symbol viewBox="0 0 430.113 430.114" id="facebook-letter-logo" xmlns="http://www.w3.org/2000/svg"><path d="M158.081 83.3v59.218h-43.385v72.412h43.385v215.183h89.122V214.936h59.805s5.601-34.721 8.316-72.685H247.54V92.74c0-7.4 9.717-17.354 19.321-17.354h48.557V.001h-66.021C155.878-.004 158.081 72.48 158.081 83.3z"/></symbol><symbol viewBox="0 0 46.002 46.002" id="planet" xmlns="http://www.w3.org/2000/svg"><path d="M40.503 16.351l.4.287h.373v-.718l1.176-.114 1.117.832h1.836l.129-.118a23.415 23.415 0 00-.623-1.823l-1.198.02-.601-.66-.116-1.061-.616.336-.33 1.297-.889-.946-.036-.894-.858-.739-.316-.315h-.995l.313.887 1.198.668.208.221-.26.13.012.703-.584.244-.498-.109-.312-.441.811.043.219-.295-1.795-1.211-.138-.516-.729.66-.739-.152-1.125 1.463-.222.573-.72.065-1.065.007-.637-.298-.188-1.265.229-.603 1.084-.237 1.182.237.145-.654-.502-.119.171-1.019 1.19-.186.832-1.175.859-.144.775.115h.286l-.158-1.104-.942.38-.332-.825-.547-.076-.103-.565.446-.486 1.061-.416.273-.488C34.599 2.175 29.284 0 23.468 0A22.87 22.87 0 009.955 4.405l1.16-.009.517.286.974.21.076.383 1.549.057-.21-.497-1.376-.039.324-.305-.113-.364h-1.244l1.357-1.013h1.3l.611.842 1.014.057.611-.593.459.229-.842.822s-1.165.021-1.108.021c.057 0 .096.802.096.802l1.413-.039.153-.381.974-.058.115-.573-.573-.097.191-.516.439-.133 1.529.076-.843.765.136.592.879.134-.057-1.07.841-.44 1.491-.172 2.159.956v.822l.688.172-.345.65h-.975l-.289.745-2.225-.525 1.751-.933-.667-.567-1.51.191-.132.137-.005-.002-.023.032-.435.452-.719.059.057.358.251.104-.01.118-.585.083-.043.339-.559.029-.101-.674-1.003.305-2.05 1.2.23.845.573.374 1.146.158v1.303l.53-.085.488-1.018 1.219-.386V7.061l.678-.512 1.639.387-.115 1.033h.44l1.205-.592.058 1.356.877.535-.037.804-.84.286.057.266 1.013.461-.021.554-.293.025a.08.08 0 00-.003-.015l-1.278-.394-.054-.41h-.001l.374-.257v-.374l-.402-.101-.1.345-.705.109-.07-.023v.035l-.244.037-.199-.402-.23-.101h-.502l-.228.188v.416l.429.143.424.06-.095.042-.387.429-.17-.214-.374-.099-1.019.958.133.109-1.504.833-1.415 1.472-.097.655-1.418.932-.703.707.078 1.414-.975-.454.007-.827-2.713.001-1.405.711-.61 1.125-.242.892.395.865 1.107.135 1.759-1.176.154.583-.537 1.014 1.339.229.134 2.068 1.835.312 1.166-1.348 1.415.288.497.691 1.357-.08.038-.401.746.362.841 1.318 1.452.02.536.938.076 1.146 1.606.611 2.026.021.593.973.898.288-.172.805-.984 1.25-.287 2.769-.889.702-1.318-.039-.439.764.326 1.436-1.435 1.834-.458.842-1.367.656-.899.137-.037.381.631.181-.076.411-.565.544.343.433.68.019-.038.524-.181.517-.058.42 1.006.847-.134.44-1.369-.026-1.362-1.188-1.061-1.865.148-1.8-.803-1.071.325-1.815-.477-.133V32.5s-1.338-1.014-1.415-1.014c-.077 0-.708-.172-.708-.172l-.134-.744-1.739-2.18.172-.783.057-1.281 1.204-.842-.172-1.434-1.758-.132-1.376-1.568-.975-.27-.63-.116.076-.573-.803-.114v.325l-2.008-.501-.808-1.236.329-.599-1.271-1.855-.218-1.357h-.516l.171 1.318.879 1.357-.096.536-.745-.115-.917-1.563v-1.819l-.956-.459V14a22.884 22.884 0 00-1.835 9.001c0 12.683 10.318 23.001 23.001 23.001 7.19 0 13.618-3.318 17.839-8.502h-.759v-1.529l-.878-1.182V32.95l-.67-.668-.059-.765.852-1.625-1.613-2.849.189-1.933-1.452-.15-.535-.535h-.976l-.496.458H33.19l-.058.153h-.957l-2.196-2.503.018-1.95.363-.133.135-.746h-.516l-.211-.783 2.541-1.834v-1.3l1.244-.691.504.05h1.023l.801-.43 2.581-.201v1.319l2.041.517zM34.051 8.15l.21-.324.756-.153.189.918.402.649.267.307.487.19-.459.546-.889.085h-.668l.075-.793.556-.115-.047-.373-.518-.325-.362-.248.001-.364zM32.81 9.584l.459-.736.619-.144.44.191-.04.497-.946.669h-.534v-.477h.002zm-12.497 2.829l-.479.04.026-.333.214-.267.288.226-.049.334zm1.679-.588l-.327.028-.066.316-.252.157-.404.034c-.014-.095-.022-.167-.022-.167h-.157v-.34h.659l.136-.351.262-.005.299.062-.128.266z"/></symbol><symbol viewBox="0 0 43 32" id="post-card" xmlns="http://www.w3.org/2000/svg"><path d="M4.65 0h34.563a3.695 3.695 0 013.685 3.691v24.61a3.694 3.694 0 01-3.685 3.691H4.65a3.694 3.694 0 01-3.686-3.691V3.69A3.695 3.695 0 014.65 0zm.509 2.46l16.694 16.722L38.692 2.46H5.159zM40.44 27.792V4.19L28.608 15.94l11.833 11.852zm-1.737 1.74l-11.84-11.859-4.15 4.12a1.227 1.227 0 01-1.733-.004l-4.046-4.052L5.158 29.531h33.546zM3.42 27.791l11.777-11.795L3.42 4.201v23.59z"/></symbol><symbol viewBox="0 0 18 12" id="right-arrow-light" xmlns="http://www.w3.org/2000/svg"><path d="M17.89 5.735L12.265.11a.375.375 0 00-.64.265v.75c0 .1.04.195.11.265l3.86 3.86H.375A.375.375 0 000 5.625v.75c0 .207.168.375.375.375h15.22l-3.86 3.86a.375.375 0 00-.11.265v.75a.375.375 0 00.64.265l5.625-5.625a.375.375 0 000-.53z"/></symbol><symbol viewBox="0 0 22 22" id="rightarrow" xmlns="http://www.w3.org/2000/svg"><g clip-path="url(#jclip0)"><path d="M18.777 3.22c-4.296-4.295-11.26-4.295-15.556 0-4.296 4.297-4.296 11.261 0 15.557 4.296 4.296 11.26 4.296 15.556 0 4.296-4.296 4.296-11.26 0-15.556zm-2.574 8.142l-4.733 4.734a.502.502 0 01-.364.148.51.51 0 01-.363-.87l3.864-3.863H4.347a.512.512 0 110-1.024h10.26l-3.864-3.863a.51.51 0 01.722-.722l4.733 4.734a.525.525 0 01.005.726z"/></g><defs><clipPath id="jclip0"><path d="M0 0h22v22H0z"/></clipPath></defs></symbol><symbol viewBox="0 0 22 22" id="search" xmlns="http://www.w3.org/2000/svg"><path d="M21.297 20.038l-5.236-5.445a8.854 8.854 0 002.084-5.71C18.145 3.984 14.16 0 9.262 0 4.365 0 .38 3.985.38 8.882c0 4.898 3.985 8.883 8.882 8.883a8.797 8.797 0 005.09-1.607l5.275 5.487c.22.229.517.355.835.355a1.16 1.16 0 00.835-1.962zM9.262 2.319a6.573 6.573 0 016.566 6.564 6.573 6.573 0 01-6.566 6.566 6.573 6.573 0 01-6.565-6.566 6.573 6.573 0 016.565-6.565z"/></symbol><symbol viewBox="0 0 28 28" id="telegram" xmlns="http://www.w3.org/2000/svg"><path d="M22.54 26.523a1.11 1.11 0 01-.621-.192l-7.04-4.775-3.777 2.717a1.11 1.11 0 01-1.719-.617l-1.896-7.185-6.775-2.59A1.108 1.108 0 01.7 11.814l25.76-10.25a1.109 1.109 0 011.519 1.243L23.63 25.621a1.108 1.108 0 01-1.088.9zm-7.044-7.226l6.272 4.253L25.15 5.8 12.93 17.557l2.536 1.72.03.02zm-5.22-.946l.84 3.181 1.809-1.301-2.37-1.607a1.105 1.105 0 01-.28-.273zm-6.118-5.527l4.652 1.779c.333.127.584.408.675.752l.59 2.236c.027-.258.144-.5.334-.683L22.052 5.704l-17.894 7.12z"/></symbol><symbol viewBox="0 0 189.473 189.473" id="telegram-logo" xmlns="http://www.w3.org/2000/svg"><path d="M152.531 179.476c-1.48 0-2.95-.438-4.211-1.293l-47.641-32.316-25.552 18.386a7.502 7.502 0 01-11.633-4.174l-12.83-48.622L4.821 93.928a7.501 7.501 0 01-.094-13.975l174.312-69.36a7.503 7.503 0 0110.282 8.408L159.898 173.38a7.499 7.499 0 01-7.367 6.096zm-47.669-48.897l42.437 28.785L170.193 39.24l-82.687 79.566 17.156 11.638c.069.043.135.089.2.135zm-35.327-6.401l5.682 21.53 12.242-8.809-16.03-10.874a7.478 7.478 0 01-1.894-1.847zM28.136 86.782l31.478 12.035a7.5 7.5 0 014.573 5.092l3.992 15.129a7.504 7.504 0 012.259-4.624L149.227 38.6 28.136 86.782z"/></symbol><symbol viewBox="0 0 28 28" id="twitter" xmlns="http://www.w3.org/2000/svg"><g clip-path="url(#nclip0)"><path d="M28 5.318a11.95 11.95 0 01-3.308.907 5.708 5.708 0 002.526-3.173 11.472 11.472 0 01-3.64 1.39 5.739 5.739 0 00-9.93 3.925c0 .455.039.892.133 1.309C9.01 9.443 4.786 7.156 1.95 3.67a5.78 5.78 0 00-.785 2.902 5.749 5.749 0 002.55 4.77 5.668 5.668 0 01-2.594-.707v.064a5.767 5.767 0 004.599 5.64 5.731 5.731 0 01-1.505.189c-.368 0-.739-.021-1.087-.098.744 2.273 2.854 3.944 5.364 3.998a11.534 11.534 0 01-7.117 2.449c-.471 0-.923-.021-1.374-.079a16.16 16.16 0 008.806 2.576c10.563 0 16.338-8.75 16.338-16.334 0-.254-.009-.5-.021-.742A11.452 11.452 0 0028 5.319z"/></g><defs><clipPath id="nclip0"><path d="M0 0h28v28H0z"/></clipPath></defs></symbol><symbol viewBox="0 0 612 612" id="twitter-logo-silhouette" xmlns="http://www.w3.org/2000/svg"><path d="M612 116.258a250.714 250.714 0 01-72.088 19.772c25.929-15.527 45.777-40.155 55.184-69.411-24.322 14.379-51.169 24.82-79.775 30.48-22.907-24.437-55.49-39.658-91.63-39.658-69.334 0-125.551 56.217-125.551 125.513 0 9.828 1.109 19.427 3.251 28.606-104.326-5.24-196.835-55.223-258.75-131.174-10.823 18.51-16.98 40.078-16.98 63.101 0 43.559 22.181 81.993 55.835 104.479a125.556 125.556 0 01-56.867-15.756v1.568c0 60.806 43.291 111.554 100.693 123.104-10.517 2.83-21.607 4.398-33.08 4.398-8.107 0-15.947-.803-23.634-2.333 15.985 49.907 62.336 86.199 117.253 87.194-42.947 33.654-97.099 53.655-155.916 53.655-10.134 0-20.116-.612-29.944-1.721 55.567 35.681 121.536 56.485 192.438 56.485 230.948 0 357.188-191.291 357.188-357.188l-.421-16.253c24.666-17.593 46.005-39.697 62.794-64.861z"/></symbol><symbol viewBox="0 0 23 26" id="video" xmlns="http://www.w3.org/2000/svg"><path d="M.2.177v25.646L22.866 13 .2.177z"/></symbol><symbol viewBox="0 0 469.333 469.333" id="views" xmlns="http://www.w3.org/2000/svg"><path d="M234.667 170.667c-35.307 0-64 28.693-64 64s28.693 64 64 64 64-28.693 64-64-28.694-64-64-64z"/><path d="M234.667 74.667C128 74.667 36.907 141.013 0 234.667c36.907 93.653 128 160 234.667 160 106.773 0 197.76-66.347 234.667-160-36.907-93.654-127.894-160-234.667-160zm0 266.666c-58.88 0-106.667-47.787-106.667-106.667S175.787 128 234.667 128s106.667 47.787 106.667 106.667-47.787 106.666-106.667 106.666z"/></symbol><symbol viewBox="0 0 512 512" id="youtube" xmlns="http://www.w3.org/2000/svg"><path d="M490.24 113.92c-13.888-24.704-28.96-29.248-59.648-30.976C399.936 80.864 322.848 80 256.064 80c-66.912 0-144.032.864-174.656 2.912-30.624 1.76-45.728 6.272-59.744 31.008C7.36 138.592 0 181.088 0 255.904v.256c0 74.496 7.36 117.312 21.664 141.728 14.016 24.704 29.088 29.184 59.712 31.264C112.032 430.944 189.152 432 256.064 432c66.784 0 143.872-1.056 174.56-2.816 30.688-2.08 45.76-6.56 59.648-31.264C504.704 373.504 512 330.688 512 256.192v-.256c0-74.848-7.296-117.344-21.76-142.016zM192 352V160l160 96-160 96z"/></symbol></svg>