<svg width="32" height="21" viewBox="0 0 32 21" fill="none" xmlns="http://www.w3.org/2000/svg">
<path d="M24.185 0.290649C20.1967 0.290649 17.0475 3.61284 17.0475 7.71036C17.0475 11.8079 20.3231 15.1301 24.3115 15.1301C24.3514 15.1301 24.4116 15.1245 24.4515 15.1238C22.8745 16.4139 20.8939 17.1913 18.7259 17.1913C17.7285 17.1913 16.9258 18.0222 16.9258 19.0462C16.9258 20.0703 17.5675 20.9012 18.5649 20.9012C25.6443 20.9005 31.238 14.9835 31.238 7.71036C31.238 7.70897 31.238 7.70758 31.238 7.70549C31.238 3.61006 28.172 0.290649 24.185 0.290649Z" fill="#C7D0F4"/>
<path d="M7.26939 0.290649C3.28103 0.290649 0.126454 3.61284 0.126454 7.71036C0.126454 11.8079 3.39937 15.1301 7.3884 15.1301C7.4283 15.1301 7.48713 15.1245 7.52703 15.1238C5.95008 16.4139 3.96875 17.1913 1.80078 17.1913C0.803352 17.1913 0 18.0222 0 19.0462C0 20.0703 0.651878 20.9012 1.64931 20.9012C8.72868 20.9005 14.3325 14.9835 14.3325 7.71036C14.3325 7.70897 14.3325 7.70758 14.3325 7.70549C14.3325 3.61006 11.2564 0.290649 7.26939 0.290649Z" fill="#C7D0F4"/>
</svg>
