<svg width="37" height="23" viewBox="0 0 37 23" fill="none" xmlns="http://www.w3.org/2000/svg">
<path d="M35.3864 2.47425C34.9673 2.28181 34.4724 2.35127 34.1224 2.65303L27.144 8.66166V1.80848C27.144 1.1336 26.5947 0.583984 25.9195 0.583984H1.22412C0.549241 0.583984 0 1.13323 0 1.80848V21.3595C0 22.034 0.548861 22.584 1.22412 22.584H25.9198C26.5943 22.584 27.1447 22.0351 27.1447 21.3595V14.5067L34.1232 20.5149C34.4731 20.8171 34.9688 20.8862 35.3871 20.6941C35.8069 20.5013 36.0761 20.0818 36.0761 19.6191V3.54882C36.0757 3.0865 35.8069 2.66708 35.3864 2.47425Z" fill="#C7D0F4"/>
</svg>
