<svg width="12" height="12" viewBox="0 0 12 12" fill="none" xmlns="http://www.w3.org/2000/svg">
<path d="M6 0C2.69168 0 0 2.69154 0 6C0 9.30846 2.69168 12 6 12C9.30846 12 12 9.30846 12 6C12 2.69154 9.30832 0 6 0ZM6 11.1241C3.17461 11.1241 0.875906 8.82539 0.875906 6C0.875906 3.17461 3.17461 0.875906 6 0.875906C8.82539 0.875906 11.1241 3.17459 11.1241 5.99986C11.1241 8.82539 8.82539 11.1241 6 11.1241Z" fill="#908E8E"/>
<path d="M8.04373 6.00001H6.14593V3.37226C6.14593 3.13037 5.94987 2.93431 5.70797 2.93431C5.46607 2.93431 5.27002 3.13037 5.27002 3.37226V6.43796C5.27002 6.67986 5.46607 6.87591 5.70797 6.87591H8.04373C8.28563 6.87591 8.48168 6.67986 8.48168 6.43796C8.48168 6.19606 8.28563 6.00001 8.04373 6.00001Z" fill="#908E8E"/>
</svg>
