<svg width="26" height="26" viewBox="0 0 26 26" fill="none" xmlns="http://www.w3.org/2000/svg">
<path d="M21.8237 1.75195H4.15092C2.30316 1.75195 0.799805 3.25501 0.799805 5.10307V15.9184C0.799805 17.7623 2.29661 19.263 4.13902 19.2695V24.1774L11.1922 19.2695H21.8237C23.6714 19.2695 25.1748 17.7662 25.1748 15.9184V5.10307C25.1748 3.25501 23.6714 1.75195 21.8237 1.75195ZM23.7466 15.9184C23.7466 16.9786 22.884 17.8413 21.8237 17.8413H10.7441L5.56724 21.4437V17.8413H4.15092C3.09061 17.8413 2.22803 16.9786 2.22803 15.9184V5.10307C2.22803 4.04261 3.09061 3.18018 4.15092 3.18018H21.8237C22.884 3.18018 23.7466 4.04261 23.7466 5.10307V15.9184Z" fill="#E5E5E5"/>
<path d="M7.32373 6.79858H18.651V8.22681H7.32373V6.79858Z" fill="#E5E5E5"/>
<path d="M7.32373 9.84546H18.651V11.2737H7.32373V9.84546Z" fill="#E5E5E5"/>
<path d="M7.32373 12.8923H18.651V14.3206H7.32373V12.8923Z" fill="#E5E5E5"/>
</svg>
