<svg width="28" height="28" viewBox="0 0 28 28" fill="none" xmlns="http://www.w3.org/2000/svg">
<path d="M20.9988 0.00582587L17.3679 0C13.2886 0 10.6524 2.70466 10.6524 6.89084V10.068H7.0016C6.68613 10.068 6.43066 10.3237 6.43066 10.6392V15.2425C6.43066 15.558 6.68642 15.8134 7.0016 15.8134H10.6524V27.4291C10.6524 27.7445 10.9078 28 11.2233 28H15.9865C16.302 28 16.5575 27.7442 16.5575 27.4291V15.8134H20.8261C21.1416 15.8134 21.397 15.558 21.397 15.2425L21.3988 10.6392C21.3988 10.4877 21.3385 10.3427 21.2316 10.2355C21.1247 10.1283 20.979 10.068 20.8276 10.068H16.5575V7.37468C16.5575 6.08017 16.866 5.42301 18.5523 5.42301L20.9983 5.42214C21.3134 5.42214 21.5689 5.16638 21.5689 4.8512V0.576761C21.5689 0.261873 21.3137 0.00640846 20.9988 0.00582587Z" fill="white"/>
</svg>
