<svg width="43" height="32" viewBox="0 0 43 32" fill="none" xmlns="http://www.w3.org/2000/svg">
<path d="M4.6496 0H39.2128C41.2425 0 42.8984 1.6567 42.8984 3.69141V28.3008C42.8984 30.3286 41.2499 31.9922 39.2128 31.9922H4.6496C2.62496 31.9922 0.963959 30.3411 0.963959 28.3008V3.69141C0.963959 1.66359 2.61251 0 4.6496 0ZM5.15855 2.46094L21.8531 19.1816L38.692 2.46094H5.15855ZM40.4413 27.7912V4.18925L28.608 15.9394L40.4413 27.7912ZM38.7039 29.5312L26.8632 17.672L22.7142 21.7918C22.2339 22.2687 21.4589 22.2671 20.9805 21.788L16.9351 17.7362L5.15847 29.5312H38.7039ZM3.42106 27.7911L15.1977 15.9961L3.42106 4.20098V27.7911Z" fill="#C7D0F4"/>
</svg>
