<svg width="18" height="12" viewBox="0 0 18 12" fill="none" xmlns="http://www.w3.org/2000/svg">
<path d="M17.8901 5.73488L12.2651 0.109877C12.1575 0.00293191 11.9974 -0.0296581 11.8564 0.0285607C11.7162 0.0864279 11.625 0.223397 11.625 0.374991V1.12498C11.625 1.22458 11.6646 1.31981 11.7349 1.39013L15.5948 5.25H0.375012C0.16773 5.25004 0 5.41773 0 5.62501V6.375C0 6.58228 0.16773 6.75001 0.375012 6.75001H15.5948L11.7349 10.6099C11.6646 10.6802 11.625 10.7754 11.625 10.875V11.625C11.625 11.7767 11.7162 11.9136 11.8564 11.9715C11.903 11.9909 11.9516 12 12 12C12.0974 12 12.1933 11.962 12.2651 11.8902L17.8901 6.26517C18.0366 6.11868 18.0366 5.88137 17.8901 5.73488Z" fill="white"/>
</svg>
