<svg width="22" height="22" viewBox="0 0 22 22" fill="none" xmlns="http://www.w3.org/2000/svg">
<g clip-path="url(#clip0)">
<path d="M18.7773 3.22092C14.4814 -1.07494 7.51659 -1.07494 3.22092 3.22092C-1.07494 7.51659 -1.07494 14.4814 3.22092 18.7773C7.51659 23.0729 14.4814 23.0729 18.7773 18.7773C23.0729 14.4814 23.0729 7.51659 18.7773 3.22092ZM16.2033 11.3623L11.4698 16.0957C11.3739 16.1925 11.2428 16.246 11.1064 16.2442C10.9707 16.2436 10.8406 16.1905 10.7432 16.0957C10.6475 16.0002 10.5935 15.8705 10.5935 15.7351C10.5935 15.5998 10.6475 15.4699 10.7432 15.3743L14.6067 11.5108H4.34671C4.06406 11.5108 3.83499 11.2817 3.83499 10.9991C3.83499 10.7165 4.06406 10.4874 4.34671 10.4874H14.6067L10.7432 6.62387C10.5439 6.42458 10.5439 6.10156 10.7432 5.90227C10.9425 5.70317 11.2656 5.70317 11.4646 5.90227L16.1981 10.6357C16.394 10.8376 16.3964 11.1578 16.2033 11.3623Z" fill="#D8004A"/>
</g>
<defs>
<clipPath id="clip0">
<rect width="22" height="22" fill="white"/>
</clipPath>
</defs>
</svg>
