<svg width="28" height="28" viewBox="0 0 28 28" fill="none" xmlns="http://www.w3.org/2000/svg">
<path d="M22.5408 26.5226C22.3221 26.5226 22.1049 26.4578 21.9185 26.3315L14.8782 21.5559L11.1022 24.2729C10.806 24.4859 10.4243 24.5395 10.0804 24.4166C9.73699 24.2933 9.47616 24.0089 9.38306 23.6561L7.48707 16.4708L0.712465 13.8804C0.285977 13.7173 0.00312913 13.3093 2.57884e-05 12.8526C-0.00307756 12.396 0.274155 11.9841 0.698574 11.8152L26.4581 1.56532C26.575 1.51566 26.6987 1.48699 26.8234 1.47931C26.868 1.47665 26.9128 1.47665 26.9573 1.47916C27.2156 1.49453 27.4694 1.59975 27.6674 1.79393C27.6879 1.81403 27.7074 1.83457 27.7259 1.856C27.8899 2.04338 27.9801 2.27184 27.9971 2.50459C28.0012 2.56311 28.0009 2.62237 27.9957 2.68163C27.9922 2.7239 27.9861 2.76601 27.9776 2.80784L23.6295 25.6217C23.5596 25.9882 23.3101 26.295 22.9655 26.4379C22.8288 26.4946 22.6844 26.5226 22.5408 26.5226ZM15.4964 19.2966L21.7676 23.5504L25.1509 5.79872L12.9315 17.5569L15.4668 19.2767C15.477 19.283 15.4867 19.2898 15.4964 19.2966ZM10.2758 18.3507L11.1155 21.5324L12.9246 20.2306L10.5557 18.6237C10.4456 18.5492 10.3513 18.4564 10.2758 18.3507ZM4.15792 12.8244L8.80968 14.6029C9.14292 14.7303 9.39444 15.0105 9.48547 15.3554L10.0754 17.5911C10.1024 17.3333 10.2193 17.0906 10.4092 16.9078L22.0525 5.70414L4.15792 12.8244Z" fill="white"/>
</svg>
